Coordinates
version=1
nRows=7
nColumns=40
inDegrees=yes

Units are S.I. units (second, meters, Newtons, ...)
If the header above contains a line with 'inDegrees', this indicates whether rotational values are in degrees (yes) or radians (no).

endheader
time	pelvis_tilt	pelvis_list	pelvis_rotation	pelvis_tx	pelvis_ty	pelvis_tz	hip_flexion_r	hip_adduction_r	hip_rotation_r	knee_angle_r	knee_angle_r_beta	ankle_angle_r	subtalar_angle_r	mtp_angle_r	hip_flexion_l	hip_adduction_l	hip_rotation_l	knee_angle_l	knee_angle_l_beta	ankle_angle_l	subtalar_angle_l	mtp_angle_l	lumbar_extension	lumbar_bending	lumbar_rotation	arm_flex_r	arm_add_r	arm_rot_r	elbow_flex_r	pro_sup_r	wrist_flex_r	wrist_dev_r	arm_flex_l	arm_add_l	arm_rot_l	elbow_flex_l	pro_sup_l	wrist_flex_l	wrist_dev_l
      0.88500000	     -7.82799760	     -1.60648880	     -2.01065191	      0.22061813	      0.88759572	     -1.21339792	     20.17370058	    -20.27900981	    -27.04765823	     23.33606465	      0.40729116	     -1.18421290	     -3.79714314	      0.00000000	     20.30083094	    -27.01326871	    -34.36643073	     26.20754031	      0.45740787	      2.39451223	     12.97444899	      0.00000000	     -5.04285300	      1.71859380	     -0.40547843	     44.91786135	    -15.02737842	     44.91786135	     75.00027464	     45.00000013	      0.00000000	      0.00000000	     44.91786135	    -15.02737842	     44.91786135	     75.00027464	     45.00000013	      0.00000000	      0.00000000
      0.89000000	     -8.15286230	     -1.60642244	     -2.04713214	      0.21941725	      0.88586310	     -1.21330662	     21.02543857	    -20.44058315	    -26.71992753	     24.13296803	      0.42119975	     -0.92597369	     -4.15803175	      0.00000000	     21.13296984	    -27.28127571	    -34.07168987	     27.02411763	      0.47165983	      2.66233671	     12.73845629	      0.00000000	     -4.90570531	      1.71627716	     -0.38781135	     44.92097557	    -15.02587082	     44.92097557	     75.00026604	     45.00000015	      0.00000000	      0.00000000	     44.92097557	    -15.02587082	     44.92097557	     75.00026604	     45.00000015	      0.00000000	      0.00000000
      0.89500000	     -8.41177005	     -1.70972926	     -2.06713729	      0.21822019	      0.88411778	     -1.21326832	     21.79210638	    -20.52289958	    -26.49709261	     24.98119949	      0.43600418	     -0.52904561	     -4.39319514	      0.00000000	     21.93959810	    -27.67004545	    -33.71189045	     27.90410240	      0.48701846	      3.06299737	     12.51988691	      0.00000000	     -4.89420784	      1.80216393	     -0.44588729	     44.92441133	    -15.02425944	     44.92441133	     75.00025736	     45.00000017	      0.00000000	      0.00000000	     44.92441133	    -15.02425944	     44.92441133	     75.00025736	     45.00000017	      0.00000000	      0.00000000
      0.90000000	     -8.63171122	     -1.63589776	     -2.07948284	      0.21702452	      0.88245497	     -1.21329321	     22.54463650	    -20.80691946	    -26.22988190	     25.80912045	      0.45045413	     -0.22101363	     -4.55519252	      0.00000000	     22.63450382	    -27.79987132	    -33.36745490	     28.63766946	      0.49982162	      3.35831147	     12.16222038	      0.00000000	     -4.91587071	      1.73458597	     -0.40184384	     44.92810329	    -15.02256746	     44.92810329	     75.00024867	     45.00000018	      0.00000000	      0.00000000	     44.92810329	    -15.02256746	     44.92810329	     75.00024867	     45.00000018	      0.00000000	      0.00000000
      0.90500000	     -8.86026154	     -1.61742415	     -2.06987543	      0.21582661	      0.88069938	     -1.21331913	     23.29708879	    -21.06541186	    -26.07736872	     26.67188159	      0.46551215	      0.09957697	     -4.55648424	      0.00000000	     23.38113343	    -27.99450559	    -32.95789891	     29.42084624	      0.51349064	      3.68172850	     11.78821352	      0.00000000	     -4.93268847	      1.71059508	     -0.38806587	     44.93192806	    -15.02084755	     44.93192806	     75.00024018	     45.00000020	      0.00000000	      0.00000000	     44.93192806	    -15.02084755	     44.93192806	     75.00024018	     45.00000020	      0.00000000	      0.00000000
      0.91000000	     -9.10169312	     -1.50384476	     -2.10951203	      0.21459460	      0.87880833	     -1.21325399	     24.14255383	    -21.40271507	    -25.77799921	     27.60186230	      0.48174338	      0.45964960	     -4.70183373	      0.00000000	     24.09887900	    -28.12283842	    -32.68383472	     30.20134789	      0.52711296	      3.99499527	     11.52911543	      0.00000000	     -4.91837030	      1.58712390	     -0.32908350	     44.93459867	    -15.01965584	     44.93459867	     75.00023443	     45.00000021	      0.00000000	      0.00000000	     44.93459867	    -15.01965584	     44.93459867	     75.00023443	     45.00000021	      0.00000000	      0.00000000
      0.91500000	     -9.37201669	     -1.41691694	     -2.14233468	      0.21335140	      0.87678872	     -1.21320499	     25.01751317	    -21.71469673	    -25.49458978	     28.53613612	      0.49804953	      0.82425769	     -4.84701132	      0.00000000	     24.87538227	    -28.29102899	    -32.39407496	     31.02309942	      0.54145523	      4.30627971	     11.30738515	      0.00000000	     -4.86533343	      1.47335663	     -0.28325446	     44.93730662	    -15.01846706	     44.93730662	     75.00022889	     45.00000021	      0.00000000	      0.00000000	     44.93730662	    -15.01846706	     44.93730662	     75.00022889	     45.00000021	      0.00000000	      0.00000000
